<svg width="50" height="50" viewBox="0 0 50 50" fill="none" xmlns="http://www.w3.org/2000/svg">
<path d="M48.4847 9.02841L45.3386 10.5889C44.7963 10.8572 44.9875 11.6796 45.5945 11.6796C45.8358 11.6796 45.6891 11.6753 48.9956 10.0592C49.2803 9.91839 49.3967 9.57304 49.2555 9.28836C49.1147 9.00294 48.7697 8.88832 48.4847 9.02841Z" fill="#D2FB9E"/>
<path d="M25.3601 6.50812C15.3827 5.1212 6.48656 13.9019 5.97378 23.9639C5.45055 34.2199 13.3503 43.6443 23.4828 43.3016C35.014 42.9128 42.0439 36.5518 42.7699 25.8495C43.4182 16.2942 35.9335 7.97944 25.3601 6.50812ZM41.6459 25.1993H40.3621C40.0445 25.1993 39.7868 25.457 39.7868 25.7746C39.7868 26.0922 40.0445 26.3499 40.3621 26.3499H41.5601C41.1567 30.707 39.6051 34.2637 37.0492 36.8941C37.1315 36.6871 37.0896 36.4422 36.922 36.2746L36.3767 35.7292C36.1519 35.5045 35.7878 35.5045 35.5631 35.7292C35.3384 35.954 35.3384 36.3181 35.5631 36.5428L36.1085 37.0882C36.2658 37.2455 36.506 37.3039 36.7285 37.2152C34.0315 39.8255 30.3002 41.4651 25.6744 41.9831V40.3881C25.6744 40.0705 25.4167 39.8128 25.0991 39.8128C24.7814 39.8128 24.5237 40.0705 24.5237 40.3881C24.5316 41.4072 24.5093 41.8744 24.5413 42.0769C24.1764 42.1028 23.8189 42.1382 23.4438 42.1509C19.7745 42.2944 16.2397 41.0076 13.3461 38.5533C13.7189 38.5121 13.718 38.3054 14.9736 37.1136C15.1984 36.8889 15.1984 36.5248 14.9736 36.3001C14.7489 36.0753 14.3848 36.0753 14.1601 36.3001C13.0286 37.4992 12.7284 37.5672 12.7126 37.9678C9.6519 35.0876 7.81502 31.2661 7.27135 27.2954H9.91128C10.2289 27.2954 10.4866 27.0377 10.4866 26.72C10.4866 26.4024 10.2289 26.1447 9.91128 26.1447C8.7065 26.149 7.34961 26.1349 7.15149 26.1569C6.86135 22.1363 7.98909 18.2726 10.1598 15.016C10.1865 15.0686 10.2148 15.1212 10.2589 15.1652C11.924 16.7554 12.002 17.0943 12.4262 17.0943C12.5734 17.0943 12.7206 17.0381 12.8329 16.9257C13.0577 16.701 13.0577 16.3369 12.8329 16.1121L11.0725 14.3517C10.979 14.2582 10.8602 14.213 10.7386 14.1973C13.7095 10.2275 18.2011 7.56486 23.1576 7.52064C23.1313 7.71053 23.1471 8.66513 23.1423 9.45001C23.1423 9.76765 23.4 10.0254 23.7176 10.0254C24.0353 10.0254 24.293 9.76765 24.293 9.45001C24.2895 8.6072 24.3003 7.75591 24.2841 7.55266C28.7813 7.87822 33.823 9.99796 37.3102 13.8046L36.1085 15.0064C35.8837 15.2312 35.8837 15.5952 36.1085 15.82C36.3332 16.0447 36.6973 16.0447 36.922 15.82L38.0601 14.6819C40.4411 17.6506 41.7688 21.3027 41.6459 25.1993Z" fill="#D2FB9E"/>
<path d="M31.3288 24.2882C29.3103 23.7278 27.4917 24.6607 25.6814 24.277C25.4886 23.5821 24.9107 23.0314 24.2209 22.8174V12.466C24.2209 12.1483 23.9632 11.8906 23.6456 11.8906C23.3279 11.8906 23.0702 12.1483 23.0702 12.466V22.8065C22.0691 23.1113 21.415 24.219 21.6401 25.2426C21.8649 26.2661 22.9287 27.0122 23.9857 26.854C24.7497 26.7379 25.382 26.1576 25.6338 25.4439C27.5669 25.7679 29.4289 24.9565 31.0209 25.3969C31.3284 25.4801 31.6438 25.3018 31.7292 24.9961C31.8142 24.6905 31.6348 24.3729 31.3288 24.2882Z" fill="#D2FB9E"/>
<path d="M39.3155 0.449895L38.3207 4.91854C38.2408 5.27614 38.5124 5.61899 38.8825 5.61899C39.1462 5.61899 39.3841 5.43695 39.4436 5.16875L40.4385 0.700109C40.5078 0.389964 40.3123 0.0820657 40.0021 0.0131446C39.6882 -0.0535292 39.3848 0.13975 39.3155 0.449895Z" fill="#D2FB9E"/>
<path d="M46.045 3.40862C45.8113 3.19362 45.4469 3.21085 45.2322 3.44533L41.8502 7.15359C41.5127 7.52296 41.7787 8.11624 42.2754 8.11624C42.7539 8.11624 42.7336 7.79363 46.0825 4.22144C46.2968 3.98621 46.2799 3.62213 46.045 3.40862Z" fill="#D2FB9E"/>
<path d="M42.9863 11.0132C43.3384 11.5103 43.6633 12.0277 43.9674 12.5591C36.0225 -0.0967011 19.4614 -1.67824 8.86543 7.74645C4.22734 11.3522 0.836432 16.5537 0.168898 22.3002C-0.349416 26.7621 0.318352 31.8339 2.2672 35.8809C12.2734 56.6601 43.645 53.5883 47.2034 29.1204C47.7196 26.2948 47.7416 23.4829 47.1394 20.4862C46.5404 16.9242 45.1944 13.5976 42.9863 11.0132ZM39.1629 41.2812C34.7875 45.2322 29.1404 47.2436 23.2481 46.9424C11.0943 46.3229 1.71092 35.9308 2.33046 23.7774C3.29865 4.78526 27.1571 -4.46722 40.3877 9.76918C48.948 18.9802 48.3068 33.0241 39.1629 41.2812Z" fill="#D2FB9E"/>
</svg>
