<svg width="50" height="50" viewBox="0 0 50 50" fill="none" xmlns="http://www.w3.org/2000/svg">
<path d="M17.8401 16.3758H37.1519C37.4401 16.3758 37.7284 16.1596 37.7284 15.7993C37.7284 15.439 37.5122 15.2949 37.1519 15.2949H17.8401C17.5519 15.2949 17.2637 15.5111 17.2637 15.8714C17.2637 16.2317 17.5519 16.3758 17.8401 16.3758Z" fill="#D2FB9E"/>
<path d="M16.974 24.4462H38.5196C38.8079 24.4462 39.0961 24.23 39.0961 23.8697C39.0961 23.5094 38.8799 23.2932 38.5196 23.2932H16.974C16.2534 23.3653 16.2534 24.4462 16.974 24.4462Z" fill="#D2FB9E"/>
<path d="M29.3681 30.7156H20.721C20.4328 30.7156 20.1445 30.9318 20.1445 31.292C20.1445 31.6523 20.3607 31.8685 20.721 31.8685H29.3681C29.6563 31.8685 29.9445 31.6523 29.9445 31.292C29.9445 30.9318 29.6563 30.7156 29.3681 30.7156Z" fill="#D2FB9E"/>
<path d="M7.03119 7.08023C6.16648 10.9714 6.88707 33.2376 7.46354 45.992C7.5356 47.7214 8.25619 48.0817 9.69736 48.0096C19.6415 47.9376 29.5856 47.8655 39.5297 47.7214C39.6018 47.3611 39.7459 47.0008 39.89 46.6405C40.0341 46.5685 40.1062 46.4243 40.1062 46.2802C40.1782 45.4155 40.2503 44.4067 40.3224 43.3258C41.3312 43.3979 42.268 43.3979 43.2047 43.4699C43.493 43.4699 43.7812 43.2538 43.7812 42.9655C44.5738 33.6699 43.2768 22.2126 43.7812 9.38611C43.7812 8.5214 43.493 7.72876 42.9885 7.00817C41.9077 5.56699 40.8988 4.26993 39.7459 2.82876C38.8812 1.74787 37.368 1.24346 36.5753 1.38758C32.8282 1.96405 28.9371 1.74787 24.7577 1.5317C20.6503 1.31552 16.3988 1.09934 12.1474 1.67581C11.9312 1.67581 11.715 1.89199 11.715 2.18023V2.61258C11.5709 2.82876 11.3547 3.04493 11.1385 3.26111C11.1385 3.76552 11.1385 4.26993 11.0665 4.77434C10.2018 4.8464 9.33707 4.91846 8.47236 4.99052C8.25619 4.99052 8.04001 5.2067 8.04001 5.42287C8.04001 5.78317 7.96795 6.14346 7.96795 6.4317C7.96795 6.0714 8.04001 5.71111 8.04001 5.35081C7.75177 5.99934 7.1753 6.4317 7.03119 7.08023ZM38.8812 3.54934C40.0341 5.06258 41.0429 6.35964 42.1238 7.72876C42.34 8.01699 42.4841 8.37729 42.6282 8.73758L37.5841 9.02582C37.368 9.02582 37.1518 8.80964 37.1518 8.59346L37.8003 2.7567C38.2327 2.90081 38.593 3.18905 38.8812 3.54934ZM12.7238 2.68464C16.6871 2.18023 20.7944 2.3964 24.6856 2.61258C35.7827 3.18905 35.1341 2.3964 36.7194 2.46846L36.0709 8.37729C35.9988 9.24199 36.7194 10.0346 37.5841 10.0346L42.6282 9.7464C42.1959 22.1405 43.4209 33.3096 42.7003 42.317C33.5488 41.7405 22.5238 42.5332 12.7959 42.3891C13.2282 30.8596 11.4268 16.592 12.7238 2.68464ZM9.04883 5.99934C9.69736 5.92729 10.3459 5.85523 10.9944 5.78317C10.5621 18.3214 10.5621 30.4273 11.3547 43.0376C11.7871 43.3979 11.9312 43.6141 12.4356 43.4699C21.5871 43.6141 30.7385 43.0376 39.1694 43.2538C39.1694 44.1185 39.0974 44.9111 39.0253 45.6317C29.5856 45.0552 19.3532 45.8479 9.12089 45.7038C9.55325 34.1023 7.75177 19.8346 9.04883 5.99934Z" fill="#D2FB9E"/>
</svg>
