<svg width="24" height="24" viewBox="0 0 24 24" fill="none"
    xmlns="http://www.w3.org/2000/svg">
    <path d="M18.5317 3.08591C17.911 2.3397 17.1362 1.70188 16.2795 1.20312L12.9766 3.08591H18.5317Z" fill="#0E4346"/>
    <path d="M12.0319 0C9.42347 0 7.07766 1.26262 5.75691 3.37748C5.21409 4.24669 4.88091 5.18677 4.75781 6.15023L14.7107 0.476672C13.8321 0.167859 12.9185 0 12.0319 0Z" fill="#0E4346"/>
    <path d="M9.67525 12.2276C9.67525 13.6563 8.67597 14.8553 7.33984 15.1645C7.47817 15.7415 7.59991 16.3582 7.70036 17.0226L11.3253 18.6387L11.5345 18.4253C11.5289 17.6339 11.511 15.0361 11.499 12.2705H11.1954C10.6391 12.2705 10.1186 12.1144 9.6753 11.8438L9.67525 12.2276Z" fill="#0E4346"/>
    <path d="M6.96508 13.8049C7.70692 13.662 8.26914 13.0082 8.26914 12.2253V9.27161C8.26914 7.65798 9.58192 6.34525 11.1955 6.34525H11.4896C11.4897 6.30189 11.5054 4.5033 11.5056 4.49219H10.5107L4.75 7.77602C4.84145 8.5668 5.07241 9.35561 5.44431 10.1171C5.97962 11.2141 6.51953 12.3866 6.96508 13.8049Z" fill="#0E4346"/>
    <path d="M20.034 8.69702V7.47241L20.0339 6.95355C20.022 6.07727 19.808 5.24987 19.4421 4.49219H12.908C12.8907 5.37058 12.8877 7.27727 12.8929 9.55802L16.5539 15.7566C17.0653 16.6156 18.1909 16.9126 19.0618 16.4165C19.656 16.078 20.0145 15.4429 19.9974 14.7588L19.9998 14.1588H19.0239C18.1997 14.1588 17.4317 13.7905 16.9166 13.1481L16.7264 12.9108L17.8235 12.0312L18.0138 12.2685C18.2605 12.5762 18.6287 12.7526 19.0238 12.7526H19.9987L19.9972 10.862L20.034 10.5955V10.0564C20.0341 8.89137 20.034 9.23608 20.034 8.69702ZM18.1714 8.28306H16.7652V6.4862H18.1714V8.28306Z" fill="#0E4346"/>
    <path d="M19.7578 17.6353C19.0394 18.0444 18.1126 18.1656 17.3132 17.9546C16.4829 17.7355 15.7837 17.2085 15.3443 16.4706L12.9023 12.3359C12.9091 13.8962 12.9398 18.7052 12.9398 18.7052C12.9398 20.0274 13.6937 21.3427 14.8385 22.0081L18.2191 23.9984H20.0076L20.0025 17.4807C19.9236 17.5353 19.8422 17.5872 19.7578 17.6353Z" fill="#0E4346"/>
    <path d="M11.8109 20.3864L7.07137 18.2734C4.6372 19.4715 3.08733 20.4771 1.73438 23.9946H15.4432L14.1051 23.2068C13.0164 22.5659 12.2105 21.5534 11.8109 20.3864Z" fill="#0E4346"/>
    <path d="M11.4873 10.8605V7.75H11.2271C10.3682 7.75 9.67188 8.44633 9.67188 9.30527C9.67188 10.1642 10.3682 10.8605 11.2271 10.8605H11.4873Z" fill="#0E4346"/>
    <rect x="16.4062" y="5.90625" width="2.10938" height="3.23438" fill="#0E4346"/>
    <rect x="16.4062" y="11.0625" width="3.60938" height="3.23438" fill="#0E4346"/>
</svg>
