<svg width="176" height="60" viewBox="0 0 176 60" fill="none" xmlns="http://www.w3.org/2000/svg">
<path d="M70.1246 23.7963V23.7336C70.1246 23.0778 69.5631 21.4386 68.4399 18.8159C68.2449 18.3624 68.1437 18.1358 68.1364 18.1358L67.833 18.8368C66.6754 21.5363 66.0964 23.1755 66.0964 23.7545C66.0964 23.8521 66.1556 23.9044 66.2743 23.9114C66.3999 23.9184 66.4937 23.9219 66.5567 23.9219L67.3727 23.9428H68.1159L68.1887 23.9323C69.4791 23.9323 70.1246 23.887 70.1246 23.7963ZM61.3984 29.3732C61.3984 29.1988 61.5973 28.9965 61.9946 28.7663C62.3923 28.5361 62.6854 28.2432 62.8736 27.8874C63.0622 27.5317 63.327 26.8899 63.669 25.9622C64.0106 25.0275 64.4743 23.8521 65.0606 22.4361C65.6533 21.0201 66.1209 19.7506 66.4624 18.6275C66.8113 17.4975 67.0483 16.7825 67.1739 16.4826C67.4602 15.799 67.8647 15.4572 68.3876 15.4572H68.6807C68.8132 15.4572 68.9773 15.5304 69.1723 15.6769C69.57 15.9768 69.9853 16.6186 70.4177 17.6021C70.5639 17.937 70.7837 18.5124 71.0769 19.3286C71.3696 20.1377 71.9554 21.7246 72.8344 24.0893C73.7134 26.454 74.2054 27.741 74.31 27.9502C74.4844 28.3129 74.7806 28.6059 75.1993 28.8291C75.6176 29.0454 75.8271 29.2197 75.8271 29.3523C75.8271 29.6452 75.6527 29.8266 75.3039 29.8964C75.0669 29.9452 74.4669 29.9696 73.5043 29.9696L72.8974 29.9801C71.607 29.9801 70.9616 29.8057 70.9616 29.4569C70.9616 29.3941 71.0417 29.2441 71.2024 29.007C71.3696 28.7698 71.4536 28.4699 71.4536 28.1072C71.4536 27.7444 71.3207 27.2247 71.0559 26.5482C70.7979 25.8715 70.578 25.453 70.3967 25.2926C70.2223 25.1321 69.4654 25.0519 68.1262 25.0519C66.7869 25.0519 66.0056 25.1251 65.7823 25.2716C65.559 25.4181 65.3186 25.8122 65.0606 26.454C64.8022 27.0957 64.6732 27.6189 64.6732 28.0234C64.6732 28.4211 64.7953 28.7733 65.0396 29.0802C65.2907 29.3871 65.4163 29.5476 65.4163 29.5615C65.4163 29.8126 64.9873 29.9382 64.1293 29.9382C63.2781 29.9382 62.6087 29.9068 62.1202 29.844C61.6389 29.7743 61.3984 29.6173 61.3984 29.3732ZM89.3092 30.0219H88.995L88.6813 30.0114H87.1222C84.6459 30.0114 83.31 29.994 83.115 29.9591C82.752 29.8964 82.5707 29.7429 82.5707 29.4987C82.5707 29.3941 82.7589 29.2093 83.1356 28.9442C83.5196 28.6791 83.7669 28.299 83.8787 27.8037C83.997 27.3015 84.0566 25.467 84.0566 22.3001C84.0566 19.1332 84.0146 17.4138 83.931 17.1417C83.8543 16.8627 83.652 16.6535 83.3242 16.514C82.8077 16.2907 82.5497 16.0536 82.5497 15.8025C82.5497 15.5514 82.9406 15.4258 83.7219 15.4258H84.3493L84.6527 15.4362L85.5947 15.4467C87.2829 15.4467 88.1267 15.5723 88.1267 15.8234C88.1267 15.9071 87.879 16.1896 87.384 16.6709C87.1046 16.9429 86.9023 17.4103 86.7767 18.073C86.6584 18.7287 86.5989 20.483 86.5989 23.3359C86.5989 26.1889 86.6409 27.7479 86.7244 28.013C86.8153 28.278 87.021 28.4629 87.342 28.5675C87.5374 28.6303 87.921 28.6617 88.4927 28.6617C89.7274 28.6617 90.6519 28.5013 91.2656 28.1804C91.6144 27.999 91.9911 27.6258 92.3957 27.0608C92.8003 26.4958 93.114 26.2133 93.3373 26.2133C93.5674 26.2133 93.6827 26.3598 93.6827 26.6528V26.9248C93.6827 28.4594 93.4942 29.3976 93.1174 29.7394C92.9083 29.9277 91.6389 30.0219 89.3092 30.0219ZM71.1082 45.6657C71.2059 45.6657 71.8826 44.3123 73.1379 41.6059C74.3936 38.8924 75.168 37.3125 75.4607 36.8661C75.7539 36.4197 76.092 36.1197 76.4756 35.9662C76.8596 35.8058 77.4699 35.7256 78.3069 35.7256C79.1507 35.7256 79.5729 35.9209 79.5729 36.3115L79.3217 36.6254L78.9973 36.9707C78.7881 37.2428 78.6381 37.5601 78.5473 37.9229C78.4637 38.2786 78.4217 38.868 78.4217 39.6912C78.4217 43.1928 78.5126 45.7458 78.6939 47.35C78.7637 47.9778 78.9904 48.4733 79.374 48.8358C79.7576 49.1916 79.9496 49.429 79.9496 49.5473L79.6877 49.7358C79.353 49.8893 78.6939 49.966 77.7103 49.966C76.7267 49.966 76.1096 49.837 75.8584 49.579L75.7539 49.3488C75.7539 49.1465 75.8306 48.7313 75.984 48.1034C76.1374 47.4687 76.2141 46.8374 76.2141 46.2095C76.2141 41.6338 76.0676 39.3459 75.7749 39.3459C75.6283 39.3459 74.9619 40.7619 73.7764 43.594C72.5906 46.426 71.8616 48.0897 71.5894 48.5847C71.3246 49.0733 70.9723 49.3171 70.5326 49.3171C70.2257 49.3171 69.3853 47.6431 68.0109 44.2951C66.6437 40.9398 65.8419 39.2621 65.6044 39.2621C65.409 39.2621 65.3117 40.9746 65.3117 44.3997C65.3117 45.9203 65.3361 46.855 65.3846 47.2038C65.4334 47.5523 65.514 47.971 65.6254 48.4591C65.7442 48.9477 65.8033 49.2717 65.8033 49.4324C65.8033 49.5927 65.6953 49.7251 65.4789 49.8301C65.2629 49.9347 64.9839 49.987 64.6419 49.987H64.0663C62.9156 49.987 62.34 49.8404 62.34 49.5473C62.34 49.4011 62.5354 49.1603 62.9259 48.8256C63.3236 48.4836 63.5537 48.1908 63.6163 47.9466C63.6862 47.6954 63.777 46.4397 63.8884 44.1798C64.0003 41.9128 64.056 40.3747 64.056 39.5656C64.056 38.7564 64.0071 38.1949 63.9094 37.881C63.8117 37.5601 63.585 37.2253 63.2293 36.8766C62.8804 36.5278 62.706 36.2627 62.706 36.0813C62.706 35.8581 63.3514 35.7465 64.6419 35.7465C65.1373 35.7465 65.5663 35.8163 65.9289 35.9558C66.2914 36.0883 66.6472 36.4127 66.996 36.9288C67.3517 37.4381 68.0914 39.0215 69.2143 41.6791C70.3372 44.3367 70.9684 45.6657 71.1082 45.6657ZM93.1384 36.0081C93.1384 36.1406 92.9361 36.336 92.5316 36.594C92.1339 36.8521 91.8866 37.2044 91.7889 37.6508C91.698 38.0903 91.6526 39.8446 91.6526 42.9138C91.6526 45.976 91.7087 47.7301 91.8201 48.1767C91.9389 48.6164 92.1934 48.9477 92.5839 49.1705C92.9816 49.387 93.1804 49.5893 93.1804 49.7778C93.1804 50.0358 92.8629 50.1648 92.2282 50.1648L91.998 50.1541L91.5167 50.1438C91.3564 50.137 91.1957 50.1336 91.0354 50.1336L90.5751 50.1126H89.1626C88.0256 50.1126 87.4569 50.0114 87.4569 49.8091V49.6626C87.4569 49.5301 87.6801 49.3347 88.1267 49.0767C88.5801 48.8114 88.8626 48.442 88.974 47.9676C89.0859 47.4863 89.1416 45.7806 89.1416 42.851C89.1416 39.9144 89.0752 38.2019 88.9427 37.7136C88.8103 37.2183 88.6011 36.894 88.3149 36.7405C87.7431 36.4266 87.4569 36.1895 87.4569 36.029C87.4569 35.757 88.5347 35.621 90.69 35.621L91.8412 35.6001H92.5213C92.9327 35.6001 93.1384 35.736 93.1384 36.0081ZM115.242 49.7568C115.242 50.0496 114.74 50.1961 113.736 50.1961H113.233L112.721 50.1858C111.786 50.1858 111.141 50.1507 110.785 50.0813C110.429 50.0114 110.251 49.8614 110.251 49.6313C110.251 49.5683 110.366 49.4011 110.597 49.129C110.834 48.8568 111.012 48.4943 111.13 48.0408C111.249 47.5874 111.308 46.7886 111.308 45.6447C111.308 44.5008 111.183 43.8173 110.931 43.594C110.687 43.3638 109.693 43.2486 107.949 43.2486C106.212 43.2486 105.201 43.3848 104.915 43.6565C104.727 43.831 104.633 44.5253 104.633 45.739C104.633 46.9527 104.674 47.7477 104.758 48.1244C104.849 48.5011 104.967 48.7943 105.114 49.0034L105.323 49.2438C105.539 49.4881 105.648 49.6313 105.648 49.6728C105.648 49.924 105.428 50.074 104.988 50.1228C104.793 50.1438 104.008 50.1541 102.634 50.1541C101.267 50.1541 100.583 49.9973 100.583 49.6836C100.583 49.516 100.852 49.2546 101.389 48.8988C101.745 48.6614 101.958 48.3443 102.027 47.9466C102.097 47.542 102.132 45.8611 102.132 42.9031C102.132 39.9457 102.08 38.2333 101.975 37.7659C101.87 37.2986 101.609 36.9463 101.19 36.7091C100.779 36.465 100.573 36.2418 100.573 36.0395C100.573 35.7675 101.445 35.6314 103.188 35.6314H104.204C105.18 35.6314 105.669 35.7954 105.669 36.1232C105.669 36.1511 105.55 36.315 105.312 36.615C105.075 36.9079 104.908 37.2707 104.811 37.7031C104.72 38.1286 104.674 38.8297 104.674 39.8062C104.674 40.7828 104.79 41.3792 105.02 41.5954C105.25 41.8117 106.227 41.9198 107.949 41.9198C109.679 41.9198 110.666 41.8012 110.91 41.5641C111.085 41.3966 111.172 40.7793 111.172 39.7121C111.172 38.6379 111.134 37.9542 111.057 37.6613C110.987 37.3683 110.876 37.1207 110.722 36.9184L110.502 36.6777C110.286 36.4476 110.178 36.2941 110.178 36.2174C110.178 35.9523 110.37 35.7954 110.754 35.7465C111.137 35.6977 111.992 35.6733 113.317 35.6733C114.642 35.6733 115.305 35.8163 115.305 36.1023C115.305 36.3185 115.179 36.5138 114.928 36.6882C114.363 37.0719 114.057 37.3195 114.008 37.4311C113.889 37.7031 113.83 39.0215 113.83 41.3862L113.757 46.555C113.757 47.5244 113.809 48.1488 113.913 48.4278C114.018 48.7068 114.192 48.9198 114.437 49.066C114.974 49.3938 115.242 49.624 115.242 49.7568ZM126.422 38.174V41.6791C126.422 42.1884 126.478 42.4953 126.59 42.5999C126.708 42.6975 126.956 42.7464 127.332 42.7464H127.782C128.822 42.7464 129.624 42.4883 130.189 41.9721C130.754 41.4489 131.037 40.7654 131.037 39.9213V39.4923C131.037 38.6274 130.758 37.9438 130.2 37.4415C129.648 36.9324 128.926 36.6777 128.034 36.6777H127.385C126.945 36.6777 126.673 36.751 126.569 36.8975C126.471 37.037 126.422 37.4625 126.422 38.174ZM128.306 35.5791C130.838 35.5791 132.467 36.3534 133.192 37.9019C133.387 38.3205 133.485 38.8436 133.485 39.4714C133.485 40.6433 132.958 41.6652 131.905 42.5371C131.319 43.0253 131.026 43.4333 131.026 43.7611C131.026 43.8588 131.371 44.4936 132.062 45.6657C132.753 46.8306 133.255 47.6118 133.569 48.0095C133.89 48.4068 134.287 48.7034 134.761 48.8988C135.236 49.087 135.473 49.2648 135.473 49.4324C135.473 49.9274 134.932 50.1751 133.851 50.1751C133.063 50.1751 132.474 49.9836 132.083 49.5996C131.811 49.3347 131.267 48.4733 130.451 47.0153C129.634 45.5577 129.174 44.7623 129.069 44.6298C128.7 44.1623 128.138 43.9287 127.385 43.9287C127.064 43.9287 126.844 44.0753 126.726 44.368C126.607 44.6543 126.548 45.2993 126.548 46.3038C126.548 47.3084 126.614 47.9744 126.747 48.3023C126.886 48.6301 127.095 48.9443 127.374 49.2438C127.653 49.537 127.793 49.708 127.793 49.7568C127.793 49.9938 127.35 50.1126 126.464 50.1126L126.108 50.1018L125.763 50.0813C125.61 50.074 125.373 50.0705 125.052 50.0705C123.412 50.0705 122.593 49.9313 122.593 49.6523C122.593 49.3728 122.708 49.1637 122.938 49.0244C123.524 48.6614 123.838 48.442 123.88 48.3653C124.04 48.0721 124.12 47.2664 124.12 45.9481L124.141 45.2157L124.152 44.4833C124.152 44.239 124.152 43.9951 124.152 43.7508L124.131 42.6627C124.131 39.8237 124.061 38.1635 123.921 37.6822C123.789 37.2009 123.545 36.8556 123.189 36.6464C122.841 36.4301 122.666 36.2418 122.666 36.0813C122.666 35.8023 123.224 35.6628 124.34 35.6628L124.696 35.6523C124.94 35.6454 125.181 35.6419 125.418 35.6419L127.573 35.5791H128.306ZM150.21 43.939V43.8764C150.21 43.2207 149.649 41.5815 148.526 38.9587C148.331 38.5053 148.23 38.2786 148.223 38.2786L147.919 38.9796C146.761 41.6791 146.182 43.3184 146.182 43.8974C146.182 43.9951 146.241 44.0474 146.36 44.0543C146.486 44.0611 146.58 44.0646 146.643 44.0646L147.459 44.0856H148.202L148.275 44.0753C149.565 44.0753 150.21 44.0298 150.21 43.939ZM141.484 49.516C141.484 49.3416 141.683 49.1393 142.08 48.9091C142.478 48.679 142.771 48.3858 142.959 48.0301C143.148 47.6744 143.413 47.0328 143.755 46.105C144.096 45.1703 144.561 43.9951 145.146 42.579C145.739 41.163 146.207 39.8934 146.548 38.7704C146.897 37.6404 147.134 36.9254 147.26 36.6254C147.546 35.9418 147.951 35.6001 148.473 35.6001H148.767C148.899 35.6001 149.063 35.6733 149.259 35.8197C149.656 36.1197 150.071 36.7614 150.504 37.745C150.65 38.0798 150.87 38.6553 151.163 39.4714C151.455 40.2806 152.042 41.8675 152.92 44.2321C153.799 46.597 154.291 47.884 154.396 48.0931C154.57 48.4557 154.866 48.7488 155.285 48.9721C155.704 49.1881 155.913 49.3625 155.913 49.495C155.913 49.7881 155.739 49.9694 155.39 50.0393C155.153 50.0881 154.553 50.1126 153.59 50.1126L152.983 50.1228C151.693 50.1228 151.047 49.9484 151.047 49.5996C151.047 49.537 151.128 49.387 151.288 49.15C151.455 48.9126 151.539 48.6125 151.539 48.25C151.539 47.8874 151.407 47.3675 151.142 46.6908C150.884 46.0145 150.664 45.5958 150.483 45.4355C150.308 45.2748 149.551 45.1947 148.212 45.1947C146.873 45.1947 146.091 45.268 145.868 45.4146C145.645 45.5611 145.404 45.955 145.146 46.597C144.888 47.2386 144.759 47.7618 144.759 48.1664C144.759 48.5637 144.881 48.916 145.125 49.2233C145.377 49.5301 145.502 49.6904 145.502 49.7045C145.502 49.9557 145.073 50.0813 144.215 50.0813C143.364 50.0813 142.695 50.0496 142.206 49.987C141.725 49.9171 141.484 49.7603 141.484 49.516ZM167.166 36.7405C166.852 36.7405 166.661 36.8591 166.591 37.0963C166.549 37.2428 166.528 37.9019 166.528 39.0738V41.1036C166.528 41.5361 166.566 41.8047 166.643 41.9093C166.72 42.007 166.957 42.0558 167.355 42.0558H167.794L167.888 42.0453L168.516 42.014C168.579 42.007 168.638 42.0035 168.694 42.0035C169.364 42.0035 169.925 41.7559 170.379 41.2606C170.832 40.7654 171.059 40.1654 171.059 39.4609V39.1785C171.059 38.46 170.811 37.8775 170.316 37.4311C169.827 36.9777 169.227 36.751 168.516 36.751L168.328 36.7301L168.056 36.7196H167.428C167.316 36.7335 167.229 36.7405 167.166 36.7405ZM168.422 43.1337H167.522C166.985 43.1337 166.682 43.2066 166.612 43.3531C166.549 43.4997 166.518 43.9428 166.518 44.6821V47.6851C166.518 48.3336 166.594 48.7313 166.748 48.8778C166.908 49.0171 167.348 49.087 168.066 49.087H168.684C169.604 49.087 170.351 48.8465 170.922 48.3653C171.495 47.8767 171.78 47.2351 171.78 46.4397V45.8958C171.78 45.0378 171.467 44.3645 170.839 43.8764C170.211 43.381 169.405 43.1337 168.422 43.1337ZM168.181 35.6001C170.664 35.6001 172.258 36.2523 172.963 37.5567C173.214 38.017 173.34 38.5472 173.34 39.147C173.34 39.74 173.196 40.2631 172.911 40.7165C172.632 41.1699 172.38 41.4873 172.157 41.6687C171.941 41.8431 171.718 42 171.488 42.1395C171.264 42.272 171.153 42.3592 171.153 42.4011C171.153 42.4429 171.432 42.6068 171.99 42.8928C172.555 43.1718 173.001 43.5031 173.329 43.8867C173.915 44.5844 174.208 45.3027 174.208 46.0424V46.3141C174.208 47.542 173.706 48.5187 172.701 49.2438C172.338 49.5091 171.829 49.7427 171.174 49.945C170.525 50.1404 169.751 50.2381 168.851 50.2381H167.742L167.47 50.2274C167.289 50.2206 167.103 50.2171 166.915 50.2171L166.643 50.2064C166.462 50.1996 166.281 50.1961 166.099 50.1961L165.827 50.1858C165.646 50.1786 165.464 50.1751 165.283 50.1751H164.477C163.263 50.1751 162.657 50.0603 162.657 49.8301C162.657 49.5927 162.842 49.3728 163.211 49.1705C163.588 48.9614 163.832 48.6091 163.944 48.1141C164.062 47.6118 164.121 46.447 164.121 44.6191V41.1769L164.1 40.0887C164.094 39.9074 164.09 39.4749 164.09 38.7913C164.09 38.1077 164.024 37.6299 163.891 37.3578C163.766 37.0788 163.511 36.8487 163.128 36.6673C162.744 36.4859 162.552 36.3255 162.552 36.186C162.552 35.9837 162.65 35.8477 162.845 35.7779C163.04 35.7012 163.64 35.6628 164.645 35.6628L167.072 35.6001H168.181Z" fill="#0E4346"/>
<path fill-rule="evenodd" clip-rule="evenodd" d="M47.7643 27.8557L47.2132 27.895L47.7665 27.8605C47.7656 27.8589 47.7648 27.8573 47.7643 27.8557ZM48.0073 28.4009C47.9495 28.3962 47.8938 28.3929 47.8402 28.3907C47.6371 28.3821 47.4305 28.3765 47.2252 28.3764C47.2243 28.5235 47.2205 28.6885 47.2132 28.8714L46.8888 29.3043L46.2601 30.1424C46.4315 30.1033 46.6561 30.0789 46.9342 30.0692C47.1729 30.0608 47.4515 30.0633 47.7695 30.0767C47.9979 30.0864 48.1878 30.1216 48.3391 30.1826L48.4779 29.9974C48.3656 29.433 48.2079 28.8999 48.0073 28.4009ZM48.6862 32.5394L48.3999 32.4498L48.6862 32.5454V32.5394ZM48.6862 35.2736C48.4321 35.5654 48.1505 35.8502 47.8466 36.1287C47.8389 36.1359 47.8308 36.143 47.8231 36.1501C47.3276 36.5871 46.7949 36.9792 46.2258 37.3264C45.8358 37.5644 45.4475 37.7847 45.0609 37.9867L44.5963 38.4515C44.7545 38.7091 44.8663 39.002 44.9161 39.3246L45.3112 38.9295V40.3987L44.9268 40.0142C44.8903 40.3197 44.8051 40.5975 44.7078 40.8342L44.7035 40.8442C44.6898 40.8775 44.6761 40.9103 44.6623 40.9428L45.3116 41.5918V43.2056L44.4391 44.0773H42.9699C42.8855 44.2089 42.8006 44.3417 42.7153 44.4754L42.7077 44.487C42.6113 44.6353 42.5129 44.7801 42.4125 44.9211H44.4391L45.3112 45.7933V47.4069L43.9801 48.738L42.065 46.8231V45.384C41.798 45.7204 41.5172 46.0324 41.2214 46.3166V46.8223L39.3063 48.7376L38.6587 48.09C38.4019 48.2181 38.1305 48.3446 37.845 48.4697L38.7097 49.3341L36.8329 51.2113C36.1889 51.2194 35.5426 51.2293 34.8932 51.2417V49.6397C34.7359 49.7061 34.5772 49.7756 34.4171 49.8489L34.4038 49.8544C34.2708 49.914 34.153 49.9676 34.0495 50.0151V51.2494H32.7605C32.7308 51.3056 32.7014 51.3621 32.6721 51.4196L32.665 51.4333C32.545 51.6621 32.4121 51.8833 32.2659 52.0933H34.0496V54.4676L32.3709 56.1463L30.2326 54.0081L30.7564 53.4844C30.4672 53.6417 30.1526 53.7656 29.811 53.8479L29.8089 53.8483C29.5472 53.9113 29.2791 53.9524 29.0061 53.9747L29.0393 54.0081L27.2988 55.7486L25.5588 54.0086L25.9722 53.595C25.7061 53.5196 25.3971 53.4287 25.0501 53.3241L24.9623 53.412L24.7982 53.2479C24.7239 53.2251 24.648 53.202 24.5707 53.1784C24.0003 53.004 23.5155 52.8416 23.1319 52.692C23.0892 52.6753 23.0434 52.6573 22.9954 52.638L24.3659 54.0086L22.2283 56.1463L20.5492 54.4676V52.0933H22.0168H22.033L23.0992 50.7986L22.0138 52.0907L22.0168 52.0933C21.8629 51.9647 21.6251 51.7299 21.472 51.3639C21.4563 51.3261 21.4418 51.288 21.4286 51.2494H20.5491L20.5492 48.8751L22.2278 47.1964L24.2402 49.209L23.6252 47.4009L22.8244 46.5999L23.2187 46.2056L22.9159 45.3154L20.1274 48.1033L19.365 47.3413C19.3147 47.4557 19.2622 47.5697 19.2074 47.6837C19.1337 47.838 19.0539 47.9893 18.9683 48.138L19.7055 48.8751V51.2417C19.0617 51.2297 18.4148 51.2199 17.7657 51.2117L16.9773 50.4231C16.7619 50.601 16.5365 50.7737 16.3018 50.9409L17.0323 51.6716L15.2919 53.4116L14.119 52.239C13.8509 52.3727 13.5802 52.5 13.307 52.62L14.6952 54.0081L12.9548 55.7486L11.2147 54.0081L12.1382 53.0846C11.5239 53.304 10.8974 53.4896 10.259 53.6413L10.9418 54.2811C11.2809 54.5991 11.4611 55.0269 11.4744 55.461L12.5336 56.5204L12.5335 56.625H11.0602C10.7278 57.0514 10.3951 57.471 10.0622 57.8829L10.0582 57.888L10.0541 57.8931L10.0501 57.8979L10.046 57.903L10.042 57.9081L10.0379 57.9129L10.0339 57.918L10.0298 57.9231L10.0258 57.9283L10.0217 57.933L10.0176 57.9381L10.0136 57.9433L10.0095 57.948L10.0055 57.9531L10.0014 57.9583L9.99734 57.9634L9.99331 57.9681L9.98924 57.9733L9.98517 57.9784L9.98114 57.9831L9.97707 57.9883L9.97304 57.9934L9.96897 57.9986L9.9649 58.0033L9.96087 58.0084L9.9568 58.0136L9.95272 58.0183L9.9487 58.0234L9.94462 58.0286L9.9406 58.0337L9.93652 58.0384L9.93245 58.0436L9.92842 58.0487L9.92435 58.0534L9.92028 58.0586L9.91625 58.0637L9.91218 58.0689L9.90811 58.0736L9.90408 58.0787L9.90001 58.0839L9.89598 58.0886L9.89191 58.0937L9.88784 58.0989L9.88381 58.104L9.87974 58.1087L9.87567 58.1139L9.87164 58.119L9.86757 58.1237L9.86354 58.1289L9.85947 58.134L9.85539 58.1391L9.85137 58.1439L9.84729 58.149L9.84322 58.1541L9.83919 58.1589L9.83512 58.164L9.83109 58.1691L9.82702 58.1743L9.82295 58.179L9.81892 58.1841L9.81485 58.1893L9.81078 58.1944L9.80675 58.1991L9.80268 58.2043L9.79861 58.2094L9.79458 58.2141L9.79051 58.2193L9.78648 58.2244L9.78241 58.2296L9.77834 58.2343L9.77431 58.2394L9.77024 58.2446L9.76617 58.2493L9.76214 58.2544L9.75807 58.2596L9.75404 58.2647L9.74997 58.2694L9.7459 58.2746L9.74187 58.2797L9.7378 58.2844L9.67291 58.365L9.67089 58.3676L9.66884 58.3701L9.66682 58.3723L9.66481 58.3749L9.66275 58.3774L9.66074 58.38L9.65872 58.3826L9.65667 58.3851L9.65465 58.3877L9.65264 58.3899L9.65058 58.3924L9.64857 58.395L9.64655 58.3976L9.64454 58.4001L9.64248 58.4027L9.64047 58.4053L9.63845 58.4074L9.63639 58.41L9.63438 58.4126L9.63237 58.4151L9.63031 58.4177L9.62829 58.4203L9.62628 58.4229L9.62422 58.425L9.62221 58.4276L9.62019 58.4301L9.61814 58.4327L9.61612 58.4353L9.61411 58.4379L9.6121 58.4404L9.61004 58.4426L9.60802 58.4451L9.60601 58.4477L9.60395 58.4503L9.60194 58.4529L9.59992 58.4554L9.59787 58.458L9.59585 58.4601L9.59384 58.4627L9.59178 58.4653L9.58977 58.4679L9.58775 58.4704L9.5857 58.473L9.58368 58.4756L9.58167 58.4777L9.57961 58.4803L9.5776 58.4829L9.57558 58.4854L9.57357 58.488L9.57151 58.4906L9.5695 58.4931L9.56748 58.4953L9.56542 58.4979L9.56341 58.5004L9.5614 58.503L9.55934 58.5056L9.55732 58.5081L9.55531 58.5107L9.55325 58.5129L9.55124 58.5154L9.54922 58.518L9.54717 58.5206L9.54515 58.5231L9.54314 58.5257L9.54108 58.5283L9.53907 58.5309L9.53705 58.533L9.53504 58.5356L9.53298 58.5381L9.53097 58.5407L9.52895 58.5433L9.52689 58.5459L9.52488 58.5484L9.52287 58.5506L9.52081 58.5531L9.51879 58.5557L9.51472 58.5609L9.51069 58.566L9.50662 58.5707L9.50255 58.5759L9.49852 58.581L9.49445 58.5857L9.49042 58.5909L9.48635 58.596L9.48228 58.6011L9.47825 58.6059L9.47011 58.6161L9.46201 58.626L9.45391 58.6363L9.44581 58.6461L9.43767 58.656L9.42957 58.6663L9.42147 58.6761L9.41337 58.6864L9.28355 58.8471L9.15378 59.0079L9.02401 59.1681C8.72924 59.5333 8.29578 59.7591 7.82778 59.7913C7.35974 59.8239 6.89932 59.6601 6.55707 59.3391L5.91211 58.7344V60H48.6862V35.2736ZM5.91211 41.5228V32.2049C5.91211 28.6645 7.36574 25.998 9.96524 24.6391C9.26255 22.6689 8.90748 20.6059 8.90748 18.4845C8.90748 6.32284 26.0325 0.425763 26.7615 0.180734L27.2993 0L27.8371 0.180734C28.5568 0.422615 45.2538 6.17242 45.6828 18.0189C45.5113 18.1447 45.3622 18.3042 45.2456 18.4931L43.3543 21.5583C43.1722 21.8537 43.0856 22.198 43.1062 22.5444L43.4203 27.8359C43.1473 27.6577 42.8438 27.5083 42.51 27.3872L42.0654 27.8317V29.7334H43.5331L43.5729 30.4028C43.5391 30.4605 43.5056 30.5187 43.4726 30.5775H42.065V32.4793L42.1307 32.5449C41.9214 32.6166 41.6562 32.703 41.3315 32.8049C41.322 32.8079 41.3125 32.811 41.303 32.8141C41.083 32.8874 40.8715 32.9598 40.6686 33.0312L41.2213 32.4785V30.5773H38.8472L37.1686 32.256L38.7379 33.8253C38.4991 33.9543 38.27 34.0962 38.0516 34.252C38.036 34.2631 38.0205 34.2744 38.005 34.2856L36.5721 32.8527L34.8932 34.5315V36.9131C35.2578 36.92 35.6215 36.9262 35.9844 36.9318C35.906 37.1113 35.8329 37.2951 35.7648 37.4826C35.7307 37.5756 35.6969 37.6716 35.6633 37.7706C35.4071 37.7664 35.1504 37.7618 34.8932 37.7569V40.1238L34.9992 40.2297C34.9602 40.4046 34.9214 40.5836 34.8829 40.7669C34.8616 40.8681 34.8497 40.9711 34.8472 41.0745C34.8412 41.1347 34.8376 41.1969 34.8369 41.2607L34.4713 40.8952L30.8666 44.4994L31.2234 44.856C31.0247 45.0334 30.8421 45.2344 30.6881 45.4629C30.6812 45.4731 30.6743 45.483 30.6675 45.4933L30.0952 44.9211H27.7212L27.721 46.8231L28.4286 47.5307C28.0995 47.5993 27.7669 47.6649 27.4309 47.7261L27.299 47.5941L27.1096 47.7836C26.9599 47.8097 26.8095 47.8354 26.6584 47.8599L26.6567 47.8603C26.3186 47.916 25.9842 47.9777 25.6537 48.0463L26.8774 46.8223V44.9211H26.3647L26.3084 44.0777H26.8776V42.1765L26.132 41.4308L26.0467 40.1524L27.299 41.4046L29.0395 39.6641L27.2992 37.9239L25.9858 39.2375L25.9112 38.1191L26.7028 37.3274L25.7981 36.4227L25.7129 35.1447L27.299 36.731L29.0393 34.9908L27.2988 33.2503L25.6927 34.8566C25.6605 34.5389 25.54 34.2449 25.354 34.0019L26.8774 32.4785V30.5775H24.5033L22.8245 32.2562L23.9111 33.3428C23.5936 33.3622 23.2882 33.4713 23.0308 33.6555L22.2278 32.8526L20.5491 34.5313V36.9055H20.8384L20.7191 37.095C20.5294 37.3966 20.44 37.7505 20.4637 38.1059L20.5492 38.3574V40.1238L21.4597 41.034L22.0746 42.8421L20.1274 40.8952L19.5774 41.445L19.2837 40.5457L19.7055 40.124V37.7569C19.0617 37.7692 18.4148 37.7792 17.7655 37.7873L15.8886 39.6643L16.1839 39.9596L15.7024 40.6711L15.2921 40.2608L13.3772 42.1757V44.0773H14.0198C14.0335 44.142 14.0511 44.2063 14.0726 44.2701C14.1432 44.4784 14.2147 44.6953 14.2873 44.9211H13.3771V46.3954C13.1014 46.5107 12.8202 46.6183 12.5335 46.7173V44.9211H10.1595L9.28732 45.7933L9.28719 47.4069L9.34432 47.4643C8.85027 47.5256 8.36392 47.5594 7.88504 47.5663C7.82504 47.5671 7.76517 47.571 7.70564 47.5783C6.88239 47.5749 6.30802 47.4351 5.91211 47.2419V44.4154C5.98578 44.2624 6.06772 44.1013 6.15867 43.9316C6.18159 43.8887 6.20264 43.8446 6.2218 43.8C6.30742 43.6003 6.43239 43.2591 6.43239 42.8511C6.43239 42.559 6.36922 42.1926 6.15082 41.8352C6.07942 41.7183 5.99881 41.6145 5.91211 41.5228ZM5.91211 52.3136V49.0384C6.44748 49.1901 7.05541 49.266 7.73594 49.266C7.79362 49.266 7.85131 49.2617 7.909 49.2536C8.36461 49.2471 8.82408 49.2189 9.28732 49.1696V50.0687L10.0218 49.3346L9.79411 49.107C10.3469 49.0294 10.9051 48.9219 11.4686 48.7839C11.6017 48.7517 11.734 48.7187 11.8654 48.684L11.2147 49.3346L12.8538 50.9739C12.5773 51.1003 12.2981 51.2186 12.0161 51.3287L10.6183 49.9311L9.28732 51.2619L9.28719 52.0804L9.32645 52.1199C9.06999 52.1717 8.81632 52.2154 8.56544 52.251C8.09864 52.3174 7.64152 52.3556 7.19414 52.3654C7.11485 52.3671 7.03591 52.368 6.95727 52.368C6.60404 52.368 6.25565 52.35 5.91211 52.3136ZM13.2382 50.7917C13.7071 50.5624 14.1678 50.3091 14.6203 50.0323C15.298 49.6136 15.8774 49.176 16.3587 48.7196C16.6114 48.4796 16.837 48.2349 17.0356 47.9841C17.3004 47.6503 17.5171 47.307 17.6856 46.9547C17.7114 46.9007 17.7365 46.8471 17.761 46.794C17.7685 46.7773 17.776 46.761 17.7835 46.7443C17.8909 46.5064 17.9849 46.272 18.0654 46.0419L16.5226 44.4994L18.2384 42.7837C18.2315 42.7608 18.2244 42.738 18.2171 42.7151L17.8666 41.6423L17.3992 41.1748L16.9177 41.8863L17.4302 42.3987L15.7784 44.0503C15.9137 44.4604 16.0515 44.8976 16.1917 45.3617L17.43 46.5999L15.2919 48.738L14.3622 47.8084C14.0849 47.9319 13.8031 48.0476 13.5166 48.156L14.6954 49.3346L13.2382 50.7917ZM31.5813 46.7927L31.1134 48.4539L31.3334 48.234C31.3402 48.2177 31.3469 48.2014 31.3534 48.1851L31.3641 48.1586C31.3846 48.1067 31.4039 48.0553 31.4218 48.0051L31.4261 47.9927C31.4454 47.9379 31.4631 47.8843 31.4791 47.8316L31.482 47.8234L31.5167 47.7231L31.5353 47.6691C31.5559 47.6091 31.576 47.5504 31.5957 47.4921C31.6106 47.4484 31.6252 47.4051 31.6396 47.3623L31.6645 47.2877C31.7634 46.9663 31.9035 46.674 32.0848 46.41C32.1041 46.3813 32.1252 46.3521 32.1479 46.3234C32.2011 46.2566 32.2635 46.1906 32.3352 46.1254C32.147 46.1177 31.951 46.134 31.7532 46.182L31.666 46.4919L31.7741 46.5999L31.5813 46.7927ZM31.4993 46.3251L31.7456 46.1841C31.6486 46.2081 31.5512 46.2399 31.4541 46.2797L31.4993 46.3251ZM31.3 50.4021C31.2562 50.484 31.2129 50.5667 31.1701 50.6503C31.0734 50.835 30.9707 51.0039 30.862 51.1569L31.2396 51.5344C31.3774 51.5379 31.5229 51.5263 31.6762 51.4967C31.9219 51.4491 32.1358 51.3604 32.32 51.2524L32.3249 51.2494H32.1474L31.3 50.4021ZM33.5587 48.3844C33.6095 48.3613 33.662 48.3377 33.7163 48.3137C33.9379 48.2126 34.1581 48.117 34.3768 48.027C34.4048 48.3231 34.3715 48.5876 34.3328 48.7809C34.2991 48.9497 34.2456 49.1271 34.1678 49.3029L34.1627 49.314C34.1294 49.3881 34.0918 49.4619 34.0495 49.5347V48.8751L33.5587 48.3844ZM38.6322 35.0679L39.031 35.6263L38.6327 35.0674L38.6322 35.0679ZM38.2507 34.5313L38.0516 34.252L38.0501 34.2531L38.2444 34.525L38.2507 34.5313ZM39.7939 33.906L40.1349 34.7584L40.138 34.7553L39.8083 33.8916L39.7939 33.906ZM42.4234 32.8376L42.4153 32.8559C42.3888 32.9163 42.3644 32.9709 42.342 33.0198L42.499 33.0918L42.5242 33.1032L42.8285 33.2428L42.4234 32.8376ZM45.0618 31.2001C45.0622 31.1995 45.0622 31.1989 45.0626 31.1983C45.1368 31.0732 45.2126 30.9526 45.2889 30.8364L45.2795 30.6776V30.677L45.1672 28.7867L45.1625 28.7058C44.9503 28.8058 44.7631 28.9327 44.5993 29.0701C44.6619 29.1756 44.7198 29.2852 44.7738 29.3989L44.4395 29.7334H43.9981C43.9882 29.7472 43.9788 29.7609 43.9693 29.7744L43.9651 29.7812C43.8292 29.9801 43.6985 30.1874 43.5729 30.4028L43.5832 30.5775H44.4391L45.0618 31.2001ZM9.74808 55.4751L9.28732 55.9363V56.1501C9.11637 56.3657 8.94541 56.5796 8.77445 56.7917L8.74942 56.8226L7.71121 58.1079L6.47675 56.9507L5.93139 56.4394C6.26302 56.0109 6.60258 55.5861 6.95007 55.1653L6.96965 55.1417C7.26845 54.7719 7.5673 54.3986 7.8661 54.0227C7.91337 53.9631 7.96059 53.9036 8.00787 53.844L8.17115 53.997L9.24318 55.002L9.74808 55.4751ZM24.3039 49.3959L23.3316 50.3683C23.3895 50.3516 23.4465 50.3319 23.5022 50.3091L23.5146 50.304C23.8282 50.1729 24.1027 49.9474 24.2927 49.6453L24.3065 49.6234C24.393 49.7173 24.496 49.8549 24.5772 50.0413C24.7014 50.007 24.8263 49.9736 24.952 49.941L24.9621 49.9307L24.9681 49.9367C25.0682 49.911 25.1689 49.8861 25.27 49.8613C24.8794 49.7379 24.5782 49.6333 24.358 49.5476L24.355 49.5463L24.3039 49.3959ZM23.6135 51.2794L23.4906 51.015C23.4656 51.0039 23.4417 50.9931 23.4187 50.9824L23.5475 51.3454L23.6135 51.2794ZM27.0877 52.4794L27.1532 52.158L27.0892 52.4781L27.0877 52.4794ZM36.0419 47.7261L35.9287 47.4236L36.0465 47.7219L36.0419 47.7261ZM43.5819 38.6695C43.4761 38.7134 43.3698 38.7564 43.2635 38.7984L43.2446 38.8058C43.1786 38.8318 43.1126 38.8575 43.0462 38.883L43.0321 38.8884C42.9395 38.9228 42.8478 38.9575 42.7562 38.9925C42.7258 38.9755 42.6944 38.9589 42.662 38.9427L41.6433 37.9239L41.0453 38.522C40.8958 38.5037 40.7394 38.4881 40.576 38.4751C40.3582 38.4579 40.1508 38.4398 39.9536 38.4207L40.088 38.2863C40.2549 38.2053 40.4289 38.1249 40.61 38.0452C40.7392 37.9884 40.8721 37.9319 41.0086 37.8758C41.426 37.7 41.85 37.5307 42.2804 37.368L43.5819 38.6695ZM42.3138 18.3837C42.3062 17.6863 42.2194 17.0118 42.0652 16.3604V18.1352L42.3138 18.3837ZM42.117 20.937C42.1928 20.4763 42.2459 20.0109 42.2783 19.5416L41.643 18.9064L39.903 20.6464L41.6435 22.3869L41.8006 22.2298L41.8348 22.2642C41.8363 22.2585 41.8379 22.2529 41.8395 22.2473C41.8411 22.2417 41.8426 22.2361 41.8441 22.2305C41.8747 21.791 41.9636 21.3552 42.117 20.937ZM37.1688 28.0548L38.8474 29.7334H41.2214V27.8324L40.139 26.7498L40.0206 26.7195L40.0488 26.6595L39.3064 25.917L37.1688 28.0548ZM40.4307 25.8482L40.8897 24.873C41.0361 24.5618 41.1701 24.2469 41.2942 23.9291L39.903 25.3205L40.4307 25.8482ZM37.5659 22.9834L39.3064 24.7239L41.0467 22.9836L39.3064 21.2431L37.5659 22.9834ZM38.8472 16.2332L37.1683 17.9119L39.3061 20.0497L41.2213 18.1345V16.2332H38.8472ZM36.8325 22.5236L38.7097 20.6464L36.5718 18.5086L34.8932 20.1872V22.5543C35.5399 22.542 36.1862 22.5318 36.8325 22.5236ZM38.7097 25.3205L36.7576 23.3682C36.1361 23.3761 35.5147 23.3862 34.8932 23.3979V25.7795L36.5721 27.4582L38.7097 25.3205ZM34.4713 33.76L38.0761 30.1554L34.4713 26.5509L30.8666 30.1554L34.4713 33.76ZM27.2992 23.58L25.5588 25.3205L27.2988 27.0605L29.0393 25.32L27.2992 23.58ZM31.3764 37.3274L29.6362 35.5872L27.8959 37.3274L29.6362 39.0676L31.3764 37.3274ZM27.7212 30.5773V32.4792L29.636 34.394L31.7738 32.256L30.0952 30.5773H27.7212ZM27.7212 27.8317V29.7332H30.0954L31.7741 28.0546L29.6362 25.9167L27.7212 27.8317ZM32.1476 23.4051L30.2326 25.3202L32.3709 27.4582L34.0496 25.7795V23.4051H32.1476ZM27.8959 22.9834L29.636 24.7236L31.3764 22.9833L29.6362 21.2433L27.8959 22.9834ZM25.5588 20.6464L27.2993 22.3869L29.0397 20.6466L27.2992 18.9062L25.5588 20.6464ZM24.9625 24.7239L26.7028 22.9834L24.9623 21.2431L23.2219 22.9834L24.9625 24.7239ZM26.8774 29.7334V27.8324L24.9625 25.917L22.8249 28.0548L24.5035 29.7334H26.8774ZM27.7212 42.1757V44.0773H30.0954L31.7743 42.3987L29.6362 40.2607L27.7212 42.1757ZM32.1476 37.7493L30.2328 39.6641L32.371 41.8024L34.0496 40.124V37.7493H32.1476ZM30.2326 34.9905L32.1474 36.9055H34.0493V34.5313L32.3705 32.8526L30.2326 34.9905ZM32.1474 22.5614H34.0495L34.0493 20.1869L32.3707 18.5085L30.2326 20.6466L32.1474 22.5614ZM27.7212 18.1352L29.6362 20.05L31.7741 17.9119L30.0952 16.2332H27.7212V18.1352ZM27.7212 13.4877V15.3894H30.0954L31.7743 13.7108L29.6362 11.5727L27.7212 13.4877ZM32.1476 9.06133L30.2328 10.9762L32.371 13.1145L34.0496 11.436V9.06133H32.1476ZM27.8959 8.63944L29.6362 10.3797L31.3764 8.63944L29.6362 6.89927L27.8959 8.63944ZM27.299 12.7165L29.0395 10.9762L27.2993 9.23601L25.559 10.9764L27.299 12.7165ZM23.2218 8.63961L24.9623 10.38L26.7026 8.63961L24.9623 6.89927L23.2218 8.63961ZM26.8774 15.3894V13.4884L24.9625 11.5731L22.8247 13.711L24.5035 15.3894H26.8774ZM26.8774 18.1345V16.2332L24.5033 16.2333L22.8244 17.9121L24.9621 20.0499L26.8774 18.1345ZM22.4506 22.5614L24.3656 20.6464L22.2277 18.5085L20.5491 20.1869V22.5614H22.4506ZM24.3658 25.3205L22.4506 23.4051H20.5492V25.7795L22.2281 27.4582L24.3658 25.3205ZM20.1274 33.76L23.7321 30.1554L20.1274 26.5509L16.5224 30.1554L20.1274 33.76ZM15.3147 25.8941L14.5499 26.659L14.5783 26.7195L14.4588 26.7501L13.3772 27.8319V29.7336H15.7511L17.4437 28.041C16.7731 27.3091 16.0469 26.5937 15.3147 25.8941ZM17.8406 23.368L15.9114 25.2972C16.6408 25.9943 17.3656 26.7083 18.0412 27.4436L19.7055 25.7795V23.3981C19.0868 23.3862 18.4655 23.376 17.8406 23.368ZM17.4298 32.256L15.7511 30.5773H13.3771V32.4792L15.2919 34.394L17.4298 32.256ZM15.2917 39.0676L17.0321 37.3274L15.2917 35.5872L13.5516 37.3274L15.2917 39.0676ZM15.8886 34.9907L17.8402 36.9425C18.4643 36.9344 19.0863 36.9248 19.7055 36.9129V34.5313L18.0265 32.8526L15.8886 34.9907ZM17.7655 22.5234C18.4155 22.5315 19.062 22.542 19.7055 22.5541V20.1867L18.0307 18.5123C17.3308 19.2333 16.6109 19.9498 15.8954 20.6531L17.7655 22.5234ZM15.2917 24.7236L17.0321 22.9833L15.2921 21.2433L13.5519 22.9834L15.2917 24.7236ZM14.1679 25.8477L14.6952 25.3202L13.3042 23.9289C13.4284 24.2467 13.5624 24.5616 13.7089 24.8728L14.1679 25.8477ZM12.955 36.7309L14.6952 34.9907L12.955 33.2502L11.2147 34.9905L12.955 36.7309ZM12.9548 41.4046L14.6952 39.6641L12.955 37.9239L11.2147 39.6643L12.9548 41.4046ZM41.0467 51.6716L39.3063 49.9307L37.5657 51.6711L39.3063 53.412L41.0467 51.6716ZM41.6428 47.5941L39.9028 49.3341L41.6433 51.075L43.3835 49.3346L41.6428 47.5941ZM41.2213 14.0824C40.96 13.5679 40.6588 13.0704 40.3242 12.5913L39.3166 11.5835C38.5961 12.2786 37.8703 12.9887 37.1658 13.7083L38.8472 15.3894H41.2213V14.0824ZM35.7687 8.11414C35.4786 7.902 35.1863 7.69663 34.8932 7.49837V8.17659C35.1779 8.15211 35.4697 8.1315 35.7687 8.11414ZM36.6509 8.91789C36.0325 8.93919 35.4496 8.97429 34.8932 9.02336V11.436L36.5692 13.1118C37.2757 12.3905 38.0006 11.6809 38.7199 10.9868L36.6509 8.91789ZM34.4713 19.4155L38.0761 15.8113L34.4713 12.2074L30.8666 15.8113L34.4713 19.4155ZM34.0495 8.21756V6.9477C33.0702 6.32957 32.1019 5.78957 31.2056 5.32937L30.2326 6.30257L32.1474 8.21756H34.0495ZM30.4103 4.93196C29.3149 4.39937 28.3735 4.00129 27.7212 3.74175V3.7912L29.6362 5.70604L30.4103 4.93196ZM27.2992 8.04291L29.0395 6.30274L27.2988 4.5624L25.5588 6.30257L27.2992 8.04291ZM26.8774 3.79069V3.74175C26.2252 4.00113 25.2838 4.39937 24.1882 4.93213L24.9621 5.70604L26.8774 3.79069ZM23.3929 5.32954C22.4968 5.78974 21.5285 6.32957 20.5492 6.9477V8.21756H22.4507L24.3659 6.3024L23.3929 5.32954ZM22.4507 9.06133H20.5494V11.4359L22.2281 13.1143L24.3659 10.9765L22.4507 9.06133ZM20.1274 19.4155L23.7321 15.8113L20.1274 12.2074L16.5226 15.8113L20.1274 19.4155ZM19.7055 8.2245V7.49837C19.3585 7.73293 19.0126 7.9776 18.6703 8.23174C19.0077 8.23157 19.3548 8.22939 19.7055 8.2245ZM18.6439 9.07551C18.3519 9.07551 18.067 9.07401 17.7931 9.07162L15.8986 10.9661C16.661 11.7212 17.353 12.4148 18.0309 13.11L19.7055 11.436V9.06759C19.3459 9.07247 18.9891 9.07551 18.6439 9.07551ZM14.2762 12.5886C13.9409 13.0687 13.6393 13.5669 13.3772 14.0826V15.3894H15.7511L17.4342 13.7067C16.7572 13.0122 16.065 12.3186 15.302 11.5628L14.2762 12.5886ZM15.7511 16.2332H13.3772V18.1353L15.2986 20.0568C16.0152 19.3522 16.7354 18.6354 17.434 17.9158L15.7511 16.2332ZM12.9552 22.3869L14.6954 20.6467L12.9548 18.9064L12.3202 19.5409C12.3819 20.4331 12.5208 21.3111 12.7384 22.17L12.9552 22.3869ZM12.5335 18.1347V16.3606C12.3794 17.0118 12.2925 17.6859 12.2849 18.3832L12.5335 18.1347ZM12.5335 27.8324L12.0885 27.3874C11.0329 27.7703 10.2817 28.437 9.82501 29.3989L10.1595 29.7334H12.5335V27.8324ZM9.32259 31.4142C9.30117 31.6676 9.28732 31.929 9.28732 32.2049L9.28719 33.0629L10.6181 34.3938L12.5335 32.4785V30.5773H10.1595L9.32259 31.4142ZM10.0218 34.9905L9.28732 34.2561V35.7249L10.0218 34.9905ZM10.6183 35.5871L9.28732 36.918V37.7368L10.6183 39.0678L12.3586 37.3274L10.6183 35.5871ZM10.0218 39.6645L9.28732 38.9301V40.3989L10.0218 39.6645ZM10.6183 40.2612L9.28732 41.5921V43.2056L10.1595 44.0777H12.5336V42.1765L10.6183 40.2612ZM9.38825 44.4994L9.28732 44.3987V44.6001L9.38825 44.4994ZM13.3772 56.5196V56.625L17.3122 56.6246L15.2921 54.6047L13.3772 56.5196ZM17.8402 52.0564L15.8884 54.0081L18.0265 56.1463L19.7055 54.4676V52.0856C19.0863 52.074 18.4643 52.0641 17.8402 52.0564ZM20.1274 55.239L18.7411 56.625H21.5137L20.1274 55.239ZM22.9426 56.625H26.8774L26.8776 56.5204L24.9625 54.6051L22.9426 56.625ZM27.7212 56.5196V56.625L31.6564 56.6246L29.6362 54.6047L27.7212 56.5196ZM34.4713 55.239L33.085 56.625H35.8576L34.4713 55.239ZM34.8932 52.0856V54.4676L36.5721 56.1463L38.7097 54.0086L36.7574 52.056C36.1384 52.0641 35.5171 52.074 34.8932 52.0856ZM37.2866 56.625H41.2214L41.2216 56.5204L39.3064 54.6051L37.2866 56.625ZM41.6433 52.2677L39.903 54.0086L41.6428 55.7486L43.3835 54.0081L41.6433 52.2677ZM42.0652 56.625H45.3112L45.3116 55.9359L43.9801 54.6047L42.0652 56.5196V56.625ZM44.5766 54.0081L45.3112 54.7427V53.2731L44.5766 54.0081ZM43.9801 53.4116L45.3112 52.0804V51.2623L43.9801 49.9311L42.2398 51.6716L43.9801 53.4116ZM44.5766 49.3346L45.3112 50.0691V48.6L44.5766 49.3346ZM45.2105 44.4994L45.3112 44.6001V44.3983L45.2105 44.4994Z" fill="#0E4346"/>
<path d="M9.7885 55.5044C9.44243 55.9493 9.09636 56.386 8.75029 56.8146C8.40422 57.2431 8.05815 57.6717 7.71207 58.0999L5.93226 56.4314C6.2701 55.9947 6.61617 55.5623 6.97047 55.1337C7.31655 54.7051 7.66262 54.2727 8.00869 53.836L9.7885 55.5044ZM17.6864 46.9467C17.1508 48.067 16.1291 49.093 14.6212 50.0243C13.1133 50.947 11.5148 51.6061 9.82562 52.0017C8.82859 52.2409 7.87275 52.36 6.95813 52.36C6.30717 52.36 5.67272 52.2983 5.05472 52.1748C3.57153 51.8946 2.58687 51.0953 2.10072 49.777C1.93592 49.3321 1.85352 48.8663 1.85352 48.3803C1.85352 47.6963 2.02243 46.9711 2.36027 46.2049C2.93706 44.9196 3.53445 43.7907 4.15244 42.8184C4.25956 42.67 4.3708 42.5959 4.48617 42.5959C4.52736 42.5959 4.56855 42.6041 4.60977 42.6206C4.70037 42.6618 4.74572 42.736 4.74572 42.8431C4.74572 42.9173 4.72099 43.012 4.67157 43.1273C3.97941 44.4211 3.63333 45.484 3.63333 46.3163C3.63333 46.4727 3.64569 46.6171 3.67041 46.7487C3.81873 47.6388 4.27192 48.2813 5.02999 48.6768C5.74686 49.0643 6.64913 49.258 7.7368 49.258C7.79449 49.258 7.85213 49.2537 7.90982 49.2456C9.07163 49.2289 10.2582 49.0724 11.4694 48.7758C12.6725 48.4874 13.8055 48.0837 14.8684 47.5647L16.4505 46.786V46.7363C16.4505 46.4234 16.3681 45.9743 16.2033 45.3893C16.022 44.7876 15.8448 44.2317 15.6718 43.7204L17.6123 40.8531L18.2179 42.7071C18.358 43.144 18.428 43.597 18.428 44.0667C18.428 44.9564 18.1808 45.9164 17.6864 46.9467ZM22.1483 37.9857L24.0147 35.0193L24.7315 45.7724L22.8652 48.7386L22.1483 37.9857ZM32.3946 48.8624C32.1392 49.0848 31.9126 49.3527 31.7148 49.6656C31.5253 49.9789 31.344 50.3041 31.171 50.6423C30.7178 51.5071 30.1327 52.0266 29.4159 52.1993C28.7979 52.3476 28.044 52.3313 27.154 52.15C26.8657 52.0921 26.1694 51.8946 25.0652 51.5568C23.9611 51.2187 23.306 50.9633 23.1 50.7906C22.96 50.6753 23.0053 50.5638 23.236 50.4567C24.3978 50.0448 25.6297 49.7316 26.9316 49.5173C28.2417 49.303 29.5065 49.0351 30.726 48.7141C31.1792 48.5984 31.5706 48.3554 31.9002 47.9847V47.9971C32.0156 47.8407 32.1598 47.7786 32.3328 47.8116C32.6377 47.8613 32.753 48.0713 32.6789 48.442C32.6377 48.6481 32.5429 48.7883 32.3946 48.8624ZM40.8116 42.5212C40.9517 42.4305 41.0383 42.3522 41.0712 42.2863C41.0218 42.0803 40.7498 41.9196 40.2554 41.8043C39.7034 41.6807 39.0442 41.6065 38.2779 41.5818C37.5198 41.5571 36.976 41.5076 36.6464 41.4335C36.4981 41.4088 36.4857 41.2481 36.6093 40.9514C36.8153 40.4735 37.0336 40.008 37.2644 39.5548C37.5033 39.0934 37.7423 38.6154 37.9813 38.121H37.9936C38.5704 38.2611 39.4315 38.3765 40.5768 38.4671C41.7221 38.5578 42.5255 38.7802 42.987 39.1345C43.2835 39.3735 43.3371 39.7237 43.1477 40.1851C42.9583 40.6383 42.8057 40.9844 42.6903 41.2233C42.4843 41.6436 42.2619 42.0432 42.0229 42.4222C41.7839 42.793 41.5409 43.1723 41.2937 43.5593C40.8652 44.2184 40.412 44.7666 39.9341 45.2033C39.4562 45.6318 38.9577 45.9944 38.4385 46.291C37.7794 46.6617 36.943 47.0367 35.9295 47.4156C35.5752 47.5557 35.2126 47.6959 34.8418 47.836C34.471 47.9761 34.0961 48.1326 33.7171 48.3057C33.1815 48.5444 32.8148 48.7219 32.6171 48.8371C32.3287 49.0099 32.0485 49.2203 31.7766 49.4671L31.7643 49.4796C31.4758 49.9 31.2204 49.9493 30.9979 49.6279C30.7755 49.3069 30.8579 48.9151 31.2451 48.454V48.4291C31.344 48.2148 31.4223 48.013 31.48 47.8236C31.5459 47.6341 31.6077 47.4529 31.6654 47.2797C31.7643 46.9583 31.9043 46.666 32.0856 46.402C32.2669 46.1303 32.5965 45.8748 33.0744 45.6357C33.4534 45.4463 33.8284 45.2813 34.1992 45.1416C34.5782 44.9933 34.9531 44.857 35.3239 44.7336C35.8348 44.5686 36.3456 44.4079 36.8565 44.2514C37.3674 44.0869 37.8824 43.8931 38.4015 43.6707C39.0936 43.3823 39.897 42.9991 40.8116 42.5212ZM43.914 36.6689C43.428 36.8996 42.9377 37.1097 42.4432 37.2992C41.957 37.4805 41.4791 37.67 41.0094 37.8678C39.9877 38.288 39.1678 38.7288 38.5498 39.1903C37.8164 39.7506 37.2438 40.4139 36.8318 41.1802C36.7906 41.2214 36.7288 41.2379 36.6464 41.2296C36.5722 41.2214 36.5351 41.1802 36.5351 41.1061C36.8071 39.8124 37.079 38.7948 37.3509 38.0532C37.7546 36.9408 38.3149 36.1291 39.0318 35.6183C39.3779 35.3711 39.7775 35.161 40.2307 34.9879C40.6839 34.8067 41.2195 34.613 41.8375 34.407C42.2578 34.2752 42.5956 34.1639 42.851 34.0733C43.0243 34.0156 43.1931 33.9538 43.3577 33.8879C43.5308 33.822 43.704 33.7643 43.8767 33.7149C43.9675 33.5171 44.0785 33.2575 44.2105 32.9362C44.3425 32.6148 44.4908 32.2852 44.6554 31.9474C44.8778 31.4942 45.1127 31.0863 45.36 30.7238C45.6154 30.353 45.8751 30.1676 46.1387 30.1676C46.4434 30.0687 46.9873 30.0358 47.7703 30.0687C48.5528 30.1017 48.8824 30.4354 48.759 31.0698C48.6518 31.589 48.5323 32.0463 48.4007 32.4418C48.2768 32.8373 48.1041 33.2081 47.8813 33.5542C47.5933 33.9827 47.2015 34.4235 46.7074 34.8767C46.287 35.2475 45.834 35.5812 45.3475 35.8778C44.8615 36.1745 44.3837 36.4381 43.914 36.6689ZM45.3231 31.3849L44.7917 22.4364L46.6825 19.3711L47.214 27.887C47.2307 28.1177 47.2307 28.4432 47.214 28.8634L45.3231 31.3849ZM50.0567 37.9857L51.9231 35.0193L52.6401 45.7724L50.7737 48.7386L50.0567 37.9857Z" fill="#0E4346"/>
</svg>
