<svg width="51" height="50" viewBox="0 0 51 50" fill="none" xmlns="http://www.w3.org/2000/svg">
<path d="M7.73702 26.715L7.73614 26.716C5.44089 29.7756 7.08095 33.7482 10.234 34.7984C13.2469 35.8018 17.6255 33.4985 17.6335 29.9083C18.1036 27.0902 15.9561 24.2928 12.7726 24.0965C10.7696 23.9894 8.83566 25.0119 7.73702 26.715ZM15.1672 31.9984C13.6588 33.2974 11.9423 33.2149 12.0188 33.2001C10.8775 33.1971 9.75338 32.7179 9.01144 31.9192C6.4562 29.1687 9.26174 25.0103 12.7025 25.2416C16.1995 25.4551 17.9719 29.5826 15.1672 31.9984Z" fill="#D2FB9E"/>
<path d="M1.5838 46.3977C1.95057 46.7045 2.46817 46.7328 2.94615 46.7469C9.09521 46.9275 15.2594 47.1077 21.3906 46.6058C22.165 46.5424 23.0149 46.3766 23.1044 45.6076C23.1758 45.493 23.2163 45.3616 23.1963 45.2261C22.688 41.8112 20.4637 38.7097 17.3907 37.1332C12.2997 34.5203 5.69137 36.232 2.76025 41.8369C1.90993 43.0984 0.438122 45.4391 1.5838 46.3977ZM21.9371 44.7238C15.7191 44.6205 8.97313 44.8647 2.88625 44.7589C3.50429 41.9605 5.40169 39.4703 7.95519 38.1574C13.5191 35.2975 20.5084 38.3744 21.9371 44.7238Z" fill="#D2FB9E"/>
<path d="M39.7336 23.5976C37.7226 23.4897 35.7914 24.5152 34.694 26.2223C32.4131 29.269 34.0321 33.2463 37.1952 34.2998C40.2076 35.3031 44.5854 33.0006 44.5948 29.4112C44.7203 28.6603 42.9182 23.7939 39.7336 23.5976ZM42.1281 31.5002C40.6191 32.7985 38.9032 32.716 38.9797 32.7012C37.8392 32.6982 36.7151 32.2197 35.9724 31.4203C33.4269 28.6785 36.2145 24.5105 39.6634 24.7426C43.1624 24.9562 44.9322 29.0865 42.1281 31.5002Z" fill="#D2FB9E"/>
<path d="M50.159 44.7261C49.6507 41.3104 47.4263 38.2096 44.3541 36.6339C39.2733 34.0274 32.6625 35.7201 29.7245 41.335C28.8794 42.5884 27.3986 44.9374 28.5467 45.8979C28.9134 46.2048 29.431 46.2331 29.909 46.2471C36.058 46.4278 42.2223 46.6079 48.3534 46.106C48.8986 46.0614 49.4967 45.9862 49.8668 45.5834C49.9845 45.4552 50.047 45.2831 50.0674 45.1069C50.1384 44.9925 50.1789 44.8614 50.159 44.7261ZM48.8998 44.2237C45.7962 44.173 42.5343 44.2073 39.371 44.2424C36.2076 44.276 32.9421 44.3118 29.8489 44.2595C30.4677 41.4611 32.3651 38.9703 34.9178 37.6573C40.4751 34.8031 47.4664 37.8614 48.8998 44.2237Z" fill="#D2FB9E"/>
<path d="M13.1631 19.2638C13.7662 19.7153 15.333 19.7441 16.0768 19.8888C17.9547 20.2542 19.8459 20.549 21.7442 20.7874L24.8355 26.782C24.9423 26.9891 25.1825 27.14 25.4721 27.074C26.0109 27.1668 26.3852 26.6283 26.6357 26.142C27.765 23.9492 28.8943 21.7564 30.0235 19.5635L36.9044 18.4383C37.1193 18.4032 37.2962 18.2487 37.3604 18.0397C37.4239 17.8314 37.3634 17.6045 37.2044 17.4552L31.5152 12.1025L32.6983 4.38129C32.77 3.91009 32.2682 3.5639 31.8563 3.79235L25.0087 7.54919L18.0304 4.03868C17.8249 3.93477 17.5518 3.95124 17.3537 4.16744C17.238 4.19692 17.1414 4.23798 17.1688 4.28985C16.6292 4.96622 16.7389 5.93641 16.8906 6.78819C17.2481 8.79649 17.685 10.7904 18.2 12.7642C16.4592 14.1442 14.7886 15.6616 13.4065 17.4011C12.9812 17.9363 12.5135 18.7774 13.1631 19.2638ZM24.7624 8.70916C24.931 8.79425 25.1311 8.78977 25.2953 8.69945L31.3891 5.35615L30.3366 12.2271C30.3083 12.4137 30.3732 12.6018 30.5105 12.731L35.5728 17.494L28.7132 18.6159C28.5273 18.6465 28.3676 18.7667 28.2869 18.9369L25.3222 25.2242L22.1364 19.0466C22.0499 18.8787 21.8864 18.7645 21.699 18.7406L14.8036 17.8635L19.6942 12.9236C19.827 12.7899 19.8852 12.5989 19.8502 12.4137L18.5529 5.58456L24.7624 8.70916Z" fill="#D2FB9E"/>
<path d="M39.3253 10.8318C39.0267 10.7265 38.699 10.8818 38.593 11.1803C38.39 11.7536 38.1094 12.2933 37.7586 12.7859C37.5749 13.0435 37.6354 13.4018 37.8937 13.5854C37.9944 13.657 38.1101 13.6914 38.2251 13.6914C38.4042 13.6914 38.5811 13.6078 38.6931 13.4503C39.1051 12.8718 39.435 12.2373 39.6739 11.564C39.7799 11.2654 39.6239 10.9378 39.3253 10.8318Z" fill="#D2FB9E"/>
<path d="M40.543 13.4895L39.0069 14.0479C38.7091 14.1561 38.5553 14.4845 38.6636 14.7824C38.7479 15.0153 38.9681 15.1601 39.2025 15.1601C39.2674 15.1601 39.3338 15.1489 39.398 15.1257L40.9342 14.5674C41.232 14.4592 41.3858 14.1307 41.2775 13.8329C41.17 13.5358 40.8394 13.3828 40.543 13.4895Z" fill="#CF8EEE"/>
<path d="M39.6027 16.0935C39.331 15.9338 38.9787 16.0278 38.8197 16.3018C38.6607 16.575 38.7541 16.9258 39.028 17.0848C39.5803 17.4058 40.1708 17.664 40.7821 17.8521C40.8381 17.8693 40.8948 17.8775 40.9508 17.8775C41.1956 17.8775 41.4225 17.7193 41.4986 17.4729C41.5919 17.1706 41.4218 16.8497 41.1195 16.7563C40.591 16.5936 40.0804 16.3704 39.6027 16.0935Z" fill="#CF8EEE"/>
</svg>
